Patient4_TMGait_0pt4_02_right_15_GRF.mot
version=1
nRows=26
nColumns=19
inDegrees=no
endheader
time	F1x	F1y	F1z	M1x	M1y	M1z	F2x	F2y	F2z	M2x	M2y	M2z	EC1x	EC1y	EC1z	EC2x	EC2y	EC2z
19.36	24.0552	773.7173	83.5983	-254.8192	-78.8008	819.0616	-16.4104	-14.3507	-1.2922	-2.6205	2.8078	-7.7771	-0.0592	0.0182	-0.0073	-0.0462	0.0165	0.9585
19.3731	20.1061	762.8144	78.6788	-251.4595	-73.9784	803.4659	-11.0829	-8.9546	-0.97438	-1.4929	2.0088	-4.3524	-0.0592	0.0182	-0.0073	-0.0462	0.0165	0.9585
19.3861	16.9192	752.7533	74.3093	-248.1716	-69.5327	788.902	-6.5942	-4.3723	-0.6712	-0.54007	1.318	-1.4561	-0.0592	0.0182	-0.0073	-0.0462	0.0165	0.9585
19.3992	14.6745	744.7726	70.7387	-245.3683	-65.7245	776.8298	-3.1916	-0.85949	-0.41258	0.19138	0.77942	0.76225	-0.0592	0.0182	-0.0073	-0.0462	0.0165	0.9585
19.4123	13.3553	739.705	68.0841	-243.3694	-62.6952	768.131	-0.85406	1.5988	-0.22533	0.70701	0.41336	2.3246	-0.0592	0.0182	-0.0073	-0.0462	0.0165	0.9585
19.4254	12.8786	737.9248	66.2733	-242.3622	-60.3964	763.1046	0.57353	3.1457	-0.10774	1.0375	0.20442	3.3142	-0.0592	0.0182	-0.0073	-0.0462	0.0165	0.9585
19.4384	13.1336	739.3502	65.211	-242.3844	-58.7447	761.547	1.2942	3.9624	-0.060128	1.2168	0.136	3.8282	-0.0592	0.0182	-0.0073	-0.0462	0.0165	0.9585
19.4515	14.0054	743.5268	64.7067	-243.3431	-57.5597	762.8613	1.5064	4.2375	-0.070071	1.2768	0.17943	3.9749	-0.0592	0.0182	-0.0073	-0.0462	0.0165	0.9585
19.4646	15.3808	749.76	64.6002	-245.0498	-56.6823	766.2257	1.3918	4.0969	-0.13514	1.231	0.3131	3.8041	-0.0592	0.0182	-0.0073	-0.0462	0.0165	0.9585
19.4776	17.182	757.2291	64.693	-247.2615	-55.9089	770.7208	1.074	3.605	-0.24146	1.0775	0.50868	3.3195	-0.0592	0.0182	-0.0073	-0.0462	0.0165	0.9585
19.4907	19.3274	765.0388	64.8391	-249.6934	-55.0906	775.4136	0.6589	2.7766	-0.38522	0.80213	0.74734	2.4754	-0.0592	0.0182	-0.0073	-0.0462	0.0165	0.9585
19.5038	21.7427	772.2756	64.896	-252.039	-54.0895	779.3925	0.22761	1.5997	-0.55222	0.38575	1.007	1.2086	-0.0592	0.0182	-0.0073	-0.0462	0.0165	0.9585
19.5169	24.3435	778.0766	64.7904	-253.9883	-52.8452	781.8434	-0.15744	0.036347	-0.72648	-0.1923	1.2626	-0.55094	-0.0592	0.0182	-0.0073	-0.0462	0.0165	0.9585
19.5299	27.0124	781.6796	64.4774	-255.247	-51.3427	782.0941	-0.40823	-1.9075	-0.8727	-0.93104	1.4501	-2.8021	-0.0592	0.0182	-0.0073	-0.0462	0.0165	0.9585
19.543	29.6143	782.4755	64.0091	-255.5576	-49.6768	779.6544	-0.41764	-4.1299	-0.94759	-1.7892	1.4756	-5.4125	-0.0592	0.0182	-0.0073	-0.0462	0.0165	0.9585
19.5561	32.0268	780.1213	63.4893	-254.7487	-47.994	774.2968	-0.050254	-6.3951	-0.87317	-2.666	1.1926	-8.0897	-0.0592	0.0182	-0.0073	-0.0462	0.0165	0.9585
19.5691	34.1945	774.6526	63.0723	-252.7846	-46.4767	766.153	0.85658	-8.206	-0.5513	-3.3584	0.42003	-10.2266	-0.0592	0.0182	-0.0073	-0.0462	0.0165	0.9585
19.5822	36.1039	766.5336	62.8711	-249.7937	-45.2563	755.7414	2.4856	-8.7344	0.14194	-3.5321	-1.0582	-10.8318	-0.0592	0.0182	-0.0073	-0.0462	0.0165	0.9585
19.5953	37.8013	756.5334	62.9457	-246.0301	-44.3964	743.8413	4.9785	-6.7775	1.335	-2.7039	-3.4508	-8.4689	-0.0592	0.0182	-0.0073	-0.0462	0.0165	0.9585
19.6084	39.3347	745.4526	63.2604	-241.7781	-43.8629	731.2372	8.3997	-0.71432	3.138	-0.22831	-6.9076	-1.2069	-0.0592	0.0182	-0.0073	-0.0462	0.0165	0.9585
19.6214	40.7348	733.8151	63.72	-237.2443	-43.572	718.4295	12.6405	11.3978	5.59	4.6634	-11.4197	13.2627	-0.0592	0.0182	-0.0073	-0.0462	0.0165	0.9585
19.6345	41.9849	721.5864	64.1461	-232.4614	-43.3734	705.3628	17.2654	31.5748	8.6143	12.7625	-16.7091	37.3389	-0.0592	0.0182	-0.0073	-0.0462	0.0165	0.9585
19.6476	43.0277	708.0385	64.3109	-227.2397	-43.081	691.3093	21.3949	61.451	11.9072	24.699	-22.0517	72.9649	-0.0592	0.0182	-0.0073	-0.0462	0.0165	0.9585
19.6606	43.7511	691.8379	63.9252	-221.1974	-42.4599	674.9551	23.5213	101.5398	14.8335	40.646	-26.0825	120.7548	-0.0592	0.0182	-0.0073	-0.0462	0.0165	0.9585
19.6737	44.017	671.3585	62.7068	-213.86	-41.2852	654.7052	21.7613	150.4696	16.3121	60.0031	-26.7915	179.1067	-0.0592	0.0182	-0.0073	-0.0462	0.0165	0.9585
19.6868	43.7078	645.1258	60.3984	-204.8063	-39.3433	629.0973	15.3325	204.9781	15.1288	81.359	-22.4461	244.2335	-0.0592	0.0182	-0.0073	-0.0462	0.0165	0.9585
